<?xml version="1.0" encoding="utf-8"?>
<!-- Generator: Adobe Illustrator 17.1.0, SVG Export Plug-In . SVG Version: 6.00 Build 0)  -->
<svg version="1.2" baseProfile="tiny" id="Art" xmlns="http://www.w3.org/2000/svg" xmlns:xlink="http://www.w3.org/1999/xlink"
	 x="0px" y="0px" width="23px" height="22px" viewBox="0 0 23 22" xml:space="preserve">
<path fill="#333331" d="M6.842,12.916c-0.188,0-0.324-0.056-0.374-0.154c-0.049-0.097-0.014-0.24,0.097-0.392l4.504-6.142
	c0.116-0.159,0.269-0.246,0.43-0.246s0.313,0.087,0.431,0.246l4.503,6.142c0.111,0.151,0.147,0.294,0.098,0.392
	c-0.049,0.098-0.186,0.154-0.373,0.154H6.842z"/>
<path fill="#333331" d="M14.118,11.127c0,0,0,0.226,0.001,0.621c-0.003,0.2,0.001,0.413-0.02,0.799
	c-0.023,0.35-0.023,0.764-0.098,1.172c-0.068,0.415-0.119,0.851-0.255,1.334c-0.099,0.472-0.282,0.98-0.493,1.492
	c-0.242,0.513-0.488,1.041-0.874,1.539c-0.175,0.252-0.364,0.497-0.601,0.721c-0.226,0.227-0.439,0.457-0.715,0.633
	c-0.507,0.394-1.084,0.665-1.644,0.872c-0.284,0.074-0.565,0.148-0.843,0.221c-0.275,0.046-0.545,0.061-0.807,0.087
	c-0.525,0.053-1.005-0.032-1.453-0.064c-0.435-0.092-0.844-0.158-1.202-0.263c-0.713-0.219-1.271-0.444-1.645-0.632
	c-0.376-0.174-0.591-0.273-0.591-0.273c-0.258-0.119-0.371-0.426-0.252-0.684c0.09-0.195,0.288-0.307,0.49-0.299l0.049,0.002
	c0,0,0.221,0.01,0.608,0.027c0.382,0.037,0.929,0.014,1.553-0.021c0.311-0.021,0.635-0.091,0.971-0.135
	c0.318-0.099,0.664-0.164,0.959-0.31c0.147-0.072,0.302-0.13,0.441-0.207l0.379-0.265c0.221-0.204,0.419-0.402,0.553-0.643
	c0.086-0.098,0.126-0.245,0.187-0.362c0.066-0.11,0.106-0.247,0.142-0.385c0.095-0.248,0.121-0.559,0.16-0.835
	c0.015-0.301,0.035-0.581,0.017-0.88c0.009-0.278-0.042-0.575-0.065-0.833c-0.019-0.265-0.09-0.47-0.112-0.667
	c-0.022-0.163-0.079-0.424-0.12-0.616c-0.078-0.388-0.122-0.609-0.122-0.609c-0.297-1.477,0.66-2.916,2.137-3.212
	c1.477-0.297,2.916,0.66,3.212,2.137c0.035,0.174,0.052,0.347,0.054,0.518L14.118,11.127z"/>
<rect fill="none" width="23" height="22"/>
<path fill="#333331" d="M21,1H2C1.45,1,1,1.45,1,2v7c0,0.55,0.45,1,1,1h3.817l1.467-2H3V3h17v5h-4.283l1.467,2H21c0.55,0,1-0.45,1-1
	V2C22,1.45,21.55,1,21,1z"/>
</svg>
